<svg xmlns="http://www.w3.org/2000/svg" width="720" height="480" viewBox="0 0 720 480">
  <rect width="720" height="480" fill="#e9dfd1"/>
  <rect x="34" y="30" width="652" height="420" rx="12" fill="#f7f3eb"/>
  <text x="67" y="74" fill="#314436" font-family="Georgia,serif" font-size="25">noma</text>
  <text x="402" y="68" fill="#677166" font-family="Arial,sans-serif" font-size="11">NOS LIEUX　 LE COLLECTIF　 JOURNAL</text>
  <path d="M64 97h592" stroke="#d8d8cc"/>
  <rect x="64" y="120" width="592" height="222" rx="4" fill="#bac3b0"/>
  <path d="M64 301c74-42 105-19 154-75 48-55 96-62 160-17 57 40 119 53 278 5v128H64z" fill="#8c9c86"/>
  <path d="M64 324c98-50 172-6 250-43 91-42 194-25 342 22v39H64z" fill="#506b55"/>
  <circle cx="540" cy="171" r="31" fill="#e7d9b9"/>
  <path d="M140 247h82v66h-82z" fill="#eee7db"/>
  <path d="M130 248l50-52 52 52z" fill="#a77d59"/>
  <rect x="169" y="270" width="21" height="43" fill="#81937e"/>
  <text x="66" y="384" fill="#36503d" font-family="Arial,sans-serif" font-size="11" letter-spacing="2">DES LIEUX À VIVRE ENSEMBLE</text>
  <text x="64" y="422" fill="#26342b" font-family="Georgia,serif" font-size="28">La ville, autrement.</text>
  <text x="498" y="414" fill="#687366" font-family="Arial,sans-serif" font-size="13">Découvrir le collectif ↗</text>
</svg>